%TF.GenerationSoftware,KiCad,Pcbnew,9.0.3*%
%TF.CreationDate,2025-07-30T12:07:42-04:00*%
%TF.ProjectId,LiteWingV2.5C,4c697465-5769-46e6-9756-322e35432e6b,rev?*%
%TF.SameCoordinates,Original*%
%TF.FileFunction,Paste,Bot*%
%TF.FilePolarity,Positive*%
%FSLAX46Y46*%
G04 Gerber Fmt 4.6, Leading zero omitted, Abs format (unit mm)*
G04 Created by KiCad (PCBNEW 9.0.3) date 2025-07-30 12:07:42*
%MOMM*%
%LPD*%
G01*
G04 APERTURE LIST*
G04 Aperture macros list*
%AMRoundRect*
0 Rectangle with rounded corners*
0 $1 Rounding radius*
0 $2 $3 $4 $5 $6 $7 $8 $9 X,Y pos of 4 corners*
0 Add a 4 corners polygon primitive as box body*
4,1,4,$2,$3,$4,$5,$6,$7,$8,$9,$2,$3,0*
0 Add four circle primitives for the rounded corners*
1,1,$1+$1,$2,$3*
1,1,$1+$1,$4,$5*
1,1,$1+$1,$6,$7*
1,1,$1+$1,$8,$9*
0 Add four rect primitives between the rounded corners*
20,1,$1+$1,$2,$3,$4,$5,0*
20,1,$1+$1,$4,$5,$6,$7,0*
20,1,$1+$1,$6,$7,$8,$9,0*
20,1,$1+$1,$8,$9,$2,$3,0*%
%AMRotRect*
0 Rectangle, with rotation*
0 The origin of the aperture is its center*
0 $1 length*
0 $2 width*
0 $3 Rotation angle, in degrees counterclockwise*
0 Add horizontal line*
21,1,$1,$2,0,0,$3*%
G04 Aperture macros list end*
%ADD10RoundRect,0.312500X-0.176777X0.795495X-0.795495X0.176777X0.176777X-0.795495X0.795495X-0.176777X0*%
%ADD11RotRect,1.500000X2.000000X225.000000*%
%ADD12RoundRect,0.312500X0.795495X0.176777X0.176777X0.795495X-0.795495X-0.176777X-0.176777X-0.795495X0*%
%ADD13RotRect,1.500000X2.000000X135.000000*%
%ADD14RoundRect,0.312500X0.176777X-0.795495X0.795495X-0.176777X-0.176777X0.795495X-0.795495X0.176777X0*%
%ADD15RotRect,1.500000X2.000000X45.000000*%
%ADD16RoundRect,0.312500X-0.795495X-0.176777X-0.176777X-0.795495X0.795495X0.176777X0.176777X0.795495X0*%
%ADD17RotRect,1.500000X2.000000X315.000000*%
%ADD18C,1.700000*%
%ADD19R,1.000000X2.510000*%
%ADD20O,1.524000X1.524000*%
G04 APERTURE END LIST*
D10*
%TO.C,J8*%
X179133199Y-124391485D03*
D11*
X177718985Y-125805699D03*
%TD*%
D12*
%TO.C,J9*%
X117141500Y-125899000D03*
D13*
X115727286Y-124484786D03*
%TD*%
D14*
%TO.C,J10*%
X115546801Y-63924515D03*
D15*
X116961015Y-62510301D03*
%TD*%
D16*
%TO.C,J7*%
X177666078Y-62332208D03*
D17*
X179080292Y-63746422D03*
%TD*%
D18*
%TO.C,J11*%
X156930000Y-112656500D03*
D19*
X156930000Y-114311500D03*
X154390000Y-111001500D03*
D18*
X154390000Y-112656500D03*
X151850000Y-112656500D03*
D19*
X151850000Y-114311500D03*
X149310000Y-111001501D03*
D18*
X149310000Y-112656500D03*
X146770000Y-112656500D03*
D19*
X146770000Y-114311500D03*
X144230000Y-111001500D03*
D18*
X144230000Y-112656500D03*
X141690000Y-112656500D03*
D19*
X141690000Y-114311500D03*
X139150000Y-111001500D03*
D18*
X139150000Y-112656500D03*
%TD*%
D19*
%TO.C,J13*%
X129347499Y-74214000D03*
D18*
X129347499Y-75869000D03*
D19*
X131887499Y-77524000D03*
D18*
X131887500Y-75869000D03*
D19*
X134427499Y-74214000D03*
D18*
X134427499Y-75869000D03*
X136967499Y-75869000D03*
D19*
X136967499Y-77524000D03*
%TD*%
D20*
%TO.C,J12*%
X155289499Y-75869000D03*
D19*
X155289500Y-74214000D03*
D20*
X157829499Y-75869000D03*
D19*
X157829499Y-77524000D03*
D20*
X160369498Y-75869000D03*
D19*
X160369499Y-74214000D03*
D20*
X162909499Y-75869000D03*
D19*
X162909499Y-77524000D03*
X165410499Y-74214000D03*
D20*
X165449499Y-75869000D03*
%TD*%
M02*
