M48
; DRILL file {KiCad 9.0.3} date 2025-07-30T12:07:42-0400
; FORMAT={-:-/ absolute / metric / decimal}
; #@! TF.CreationDate,2025-07-30T12:07:42-04:00
; #@! TF.GenerationSoftware,Kicad,Pcbnew,9.0.3
; #@! TF.FileFunction,Plated,1,2,PTH
FMAT,2
METRIC
; #@! TA.AperFunction,Plated,PTH,ViaDrill
T1C0.300
; #@! TA.AperFunction,Plated,PTH,ComponentDrill
T2C0.300
; #@! TA.AperFunction,Plated,PTH,ComponentDrill
T3C0.600
; #@! TA.AperFunction,Plated,PTH,ComponentDrill
T4C1.000
; #@! TA.AperFunction,Plated,PTH,ComponentDrill
T5C1.199
%
G90
G05
T1
X114.095Y-64.611
X114.379Y-123.527
X114.813Y-65.848
X115.474Y-121.793
X115.561Y-63.468
X115.697Y-67.1
X115.727Y-124.485
X116.582Y-68.352
X116.669Y-64.528
X116.694Y-120.048
X116.74Y-125.949
X116.762Y-123.48
X116.774Y-62.142
X117.112Y-126.737
X117.466Y-69.604
X117.765Y-65.6
X117.769Y-127.406
X117.801Y-124.843
X117.812Y-60.842
X118.093Y-63.414
X118.266Y-121.972
X118.376Y-70.672
X118.404Y-117.267
X118.86Y-66.672
X118.873Y-123.747
X119.383Y-68.068
X119.698Y-64.898
X119.802Y-120.513
X119.928Y-118.754
X119.946Y-122.651
X120.032Y-69.232
X120.243Y-125.97
X120.549Y-62.708
X120.816Y-74.056
X120.846Y-66.857
X121.376Y-122.19
X121.687Y-67.692
X121.898Y-74.025
X122.059Y-76.484
X122.059Y-112.044
X122.059Y-114.584
X122.276Y-63.915
X122.496Y-121.67
X122.747Y-124.201
X123.075Y-73.994
X123.451Y-122.55
X123.825Y-67.751
X123.905Y-111.399
X123.999Y-123.316
X124.002Y-65.123
X124.328Y-67.205
X124.475Y-68.339
X124.599Y-76.484
X124.599Y-79.024
X124.599Y-81.564
X124.599Y-84.104
X124.599Y-104.424
X124.599Y-106.964
X124.853Y-66.555
X125.063Y-67.835
X125.42Y-65.925
X125.587Y-67.205
X126.112Y-66.408
X127.624Y-87.931
X127.715Y-100.731
X127.715Y-101.412
X128.368Y-108.025
X128.488Y-87.949
X128.495Y-101.398
X128.517Y-100.698
X128.98Y-107.518
X129.09Y-111.582
X129.831Y-110.719
X129.921Y-111.619
X129.977Y-103.216
X130.046Y-77.363
X130.23Y-112.9
X130.752Y-111.105
X130.766Y-100.662
X130.843Y-82.21
X130.875Y-102.663
X130.913Y-83.613
X131.344Y-109.089
X131.398Y-119.021
X131.821Y-84.558
X131.881Y-83.773
X132.011Y-108.485
X132.083Y-74.957
X132.091Y-73.213
X132.097Y-76.687
X132.112Y-75.786
X132.454Y-116.723
X132.466Y-117.889
X132.731Y-100.29
X132.732Y-84.54
X132.743Y-90.242
X132.755Y-90.909
X132.76Y-102.554
X133.113Y-85.479
X133.184Y-76.792
X133.24Y-74.875
X133.653Y-95.004
X133.667Y-98.21
X133.679Y-96.025
X133.691Y-99.181
X133.704Y-96.958
X133.728Y-100.064
X133.767Y-100.852
X133.819Y-92.769
X134.421Y-114.545
X134.459Y-78.261
X134.665Y-115.143
X135.173Y-114.423
X135.34Y-80.373
X135.411Y-87.301
X135.573Y-82.01
X135.806Y-105.335
X135.815Y-87.89
X136.183Y-87.301
X136.519Y-105.318
X136.53Y-87.945
X136.844Y-87.32
X137.073Y-89.782
X137.112Y-99.015
X137.252Y-92.76
X137.769Y-80.498
X138.517Y-80.474
X138.566Y-92.742
X139.463Y-83.559
X139.812Y-91.251
X139.912Y-92.694
X139.912Y-93.443
X140.047Y-108.947
X140.052Y-90.337
X140.077Y-88.642
X141.042Y-85.236
X141.782Y-88.529
X141.892Y-74.567
X142.251Y-79.962
X143.048Y-92.838
X143.159Y-80.956
X143.363Y-87.614
X143.38Y-101.412
X143.633Y-114.584
X143.886Y-106.942
X143.982Y-88.06
X144.186Y-108.655
X144.231Y-81.854
X144.231Y-82.6
X144.238Y-83.351
X144.292Y-95.527
X144.446Y-92.58
X144.512Y-90.266
X144.516Y-84.247
X144.613Y-88.37
X144.659Y-98.804
X144.694Y-74.42
X144.915Y-81.872
X144.919Y-114.584
X144.924Y-82.574
X144.933Y-83.346
X145.401Y-93.703
X145.417Y-98.804
X145.609Y-82.574
X145.626Y-83.337
X145.874Y-99.951
X145.88Y-80.685
X145.883Y-74.379
X146.149Y-95.338
X146.311Y-82.583
X146.624Y-76.484
X146.641Y-80.724
X146.772Y-96.037
X146.805Y-111.464
X147.272Y-99.963
X147.273Y-84.928
X147.65Y-85.809
X147.999Y-94.72
X148.264Y-78.27
X148.421Y-110.795
X148.504Y-80.728
X148.73Y-98.493
X149.251Y-89.724
X149.383Y-93.805
X149.47Y-94.481
X149.849Y-95.796
X149.999Y-114.584
X150.081Y-94.459
X150.195Y-90.15
X150.215Y-93.704
X150.32Y-91.692
X150.395Y-92.368
X151.581Y-81.781
X151.712Y-111.494
X151.828Y-98.739
X152.539Y-106.964
X152.539Y-109.504
X152.701Y-78.527
X153.078Y-74.166
X153.147Y-91.661
X153.195Y-90.686
X153.701Y-79.05
X153.823Y-98.395
X154.55Y-80.6
X155.055Y-85.829
X155.064Y-85.113
X155.069Y-84.418
X155.084Y-90.731
X155.114Y-91.633
X155.135Y-92.443
X155.555Y-96.601
X155.775Y-85.833
X155.784Y-85.117
X155.784Y-89.229
X155.788Y-84.422
X156.001Y-82.79
X156.04Y-81.476
X156.046Y-82.151
X156.049Y-78.656
X156.147Y-91.382
X156.147Y-92.001
X156.162Y-90.747
X156.162Y-92.699
X156.178Y-90.112
X156.47Y-85.833
X156.48Y-85.117
X156.483Y-84.422
X156.535Y-73.337
X156.606Y-93.163
X156.694Y-78.656
X156.774Y-91.0
X156.887Y-92.585
X156.929Y-113.696
X156.957Y-81.506
X156.981Y-82.79
X156.994Y-82.151
X157.256Y-93.163
X157.403Y-73.337
X157.448Y-111.143
X157.465Y-90.987
X157.505Y-92.565
X157.591Y-100.314
X157.619Y-106.964
X157.702Y-110.474
X157.845Y-81.506
X157.857Y-82.13
X157.857Y-82.776
X157.883Y-113.675
X158.16Y-93.42
X158.805Y-82.13
X158.815Y-82.761
X159.647Y-82.137
X159.662Y-82.79
X160.159Y-117.124
X160.256Y-70.412
X161.498Y-69.984
X161.975Y-74.423
X161.995Y-73.317
X162.179Y-86.589
X162.537Y-70.555
X162.681Y-104.49
X162.891Y-110.733
X163.046Y-96.202
X163.047Y-96.898
X163.061Y-80.963
X163.393Y-112.66
X163.439Y-113.405
X163.496Y-74.148
X163.534Y-71.695
X163.596Y-70.127
X163.79Y-80.692
X163.861Y-69.068
X164.168Y-112.93
X164.41Y-69.76
X164.737Y-68.579
X164.844Y-113.945
X164.844Y-114.642
X164.845Y-99.887
X164.864Y-115.36
X164.909Y-96.01
X164.954Y-97.715
X166.114Y-100.607
X166.889Y-100.607
X166.968Y-75.158
X167.167Y-87.897
X167.214Y-85.84
X168.161Y-70.647
X168.161Y-71.33
X168.18Y-72.0
X168.18Y-72.688
X168.775Y-70.958
X168.794Y-71.646
X168.794Y-72.39
X169.791Y-70.673
X170.319Y-76.484
X170.319Y-79.024
X170.319Y-81.564
X170.319Y-106.964
X170.319Y-109.504
X170.319Y-112.044
X170.319Y-114.584
X170.75Y-64.924
X171.148Y-123.492
X171.714Y-66.116
X172.529Y-121.081
X172.693Y-67.04
X172.859Y-71.404
X172.859Y-73.944
X172.859Y-76.484
X172.859Y-112.044
X172.859Y-114.584
X172.893Y-124.712
X172.963Y-63.498
X173.756Y-122.324
X173.94Y-68.242
X173.974Y-66.017
X174.582Y-119.135
X174.638Y-125.933
X175.135Y-123.106
X175.269Y-65.315
X175.361Y-120.343
X175.468Y-61.73
X175.809Y-67.331
X175.947Y-121.704
X176.196Y-117.708
X176.341Y-64.219
X176.348Y-70.885
X176.382Y-127.153
X176.559Y-66.411
X176.596Y-124.925
X176.72Y-60.845
X177.042Y-122.776
X177.393Y-61.188
X177.41Y-63.121
X177.935Y-125.519
X177.998Y-67.99
X178.016Y-119.84
X178.061Y-64.643
X178.139Y-123.847
X178.471Y-62.014
X178.901Y-121.093
X179.219Y-66.245
X179.246Y-124.907
X179.785Y-122.345
X179.834Y-63.625
X180.084Y-124.281
X180.339Y-65.135
X180.669Y-123.597
T2
X147.477Y-106.494
X147.477Y-107.894
X148.177Y-105.794
X148.177Y-107.194
X148.177Y-108.594
X148.877Y-106.494
X148.877Y-107.894
X149.577Y-105.794
X149.577Y-107.194
X149.577Y-108.594
X150.278Y-106.494
X150.278Y-107.894
T3
X136.061Y-103.005
X136.061Y-104.255
T4
X126.276Y-74.204
X126.276Y-76.744
X126.276Y-79.284
X126.276Y-81.824
X126.276Y-84.364
X126.276Y-86.904
X126.276Y-101.384
X126.276Y-103.924
X126.276Y-106.464
X126.276Y-109.004
X126.276Y-111.544
X126.276Y-114.084
X168.477Y-74.204
X168.477Y-76.744
X168.477Y-79.284
X168.477Y-81.824
X168.477Y-84.364
X168.477Y-86.904
X168.477Y-101.384
X168.477Y-103.924
X168.477Y-106.464
X168.477Y-109.004
X168.477Y-111.544
X168.477Y-114.084
T5
X158.656Y-80.046
X161.159Y-80.046
T3
G00X143.058Y-74.709
M15
G01X143.058Y-74.109
M16
G05
G00X143.058Y-79.139
M15
G01X143.058Y-78.039
M16
G05
G00X151.697Y-74.709
M15
G01X151.697Y-74.109
M16
G05
G00X151.697Y-79.139
M15
G01X151.697Y-78.039
M16
G05
M30
